<mxfile host="app.diagrams.net" agent="Mozilla/5.0 (Windows NT 10.0; Win64; x64) AppleWebKit/537.36 (KHTML, like Gecko) Chrome/129.0.0.0 Safari/537.36" version="24.7.17">
  <diagram name="Page-1" id="74e2e168-ea6b-b213-b513-2b3c1d86103e">
    <mxGraphModel dx="1050" dy="522" grid="1" gridSize="10" guides="1" tooltips="1" connect="1" arrows="1" fold="1" page="1" pageScale="1" pageWidth="1100" pageHeight="850" background="none" math="0" shadow="0">
      <root>
        <mxCell id="0" />
        <mxCell id="1" parent="0" />
        <mxCell id="Tz6Zli8myt8lKqjLvsXi-3" value="" style="edgeStyle=orthogonalEdgeStyle;rounded=0;orthogonalLoop=1;jettySize=auto;html=1;labelBackgroundColor=none;strokeColor=#0B4D6A;fontColor=default;" edge="1" parent="1" source="Tz6Zli8myt8lKqjLvsXi-1" target="Tz6Zli8myt8lKqjLvsXi-2">
          <mxGeometry relative="1" as="geometry" />
        </mxCell>
        <mxCell id="Tz6Zli8myt8lKqjLvsXi-1" value="Inicio" style="ellipse;whiteSpace=wrap;html=1;aspect=fixed;labelBackgroundColor=none;fillColor=#09555B;strokeColor=#BAC8D3;fontColor=#EEEEEE;" vertex="1" parent="1">
          <mxGeometry x="500" y="70" width="80" height="80" as="geometry" />
        </mxCell>
        <mxCell id="Tz6Zli8myt8lKqjLvsXi-6" value="" style="edgeStyle=orthogonalEdgeStyle;rounded=0;orthogonalLoop=1;jettySize=auto;html=1;labelBackgroundColor=none;strokeColor=#0B4D6A;fontColor=default;" edge="1" parent="1" source="Tz6Zli8myt8lKqjLvsXi-2" target="Tz6Zli8myt8lKqjLvsXi-5">
          <mxGeometry relative="1" as="geometry" />
        </mxCell>
        <mxCell id="Tz6Zli8myt8lKqjLvsXi-2" value="Mostrar msj: ingresar palabra:" style="shape=parallelogram;perimeter=parallelogramPerimeter;whiteSpace=wrap;html=1;fixedSize=1;labelBackgroundColor=none;fillColor=#09555B;strokeColor=#BAC8D3;fontColor=#EEEEEE;" vertex="1" parent="1">
          <mxGeometry x="465" y="190" width="150" height="60" as="geometry" />
        </mxCell>
        <mxCell id="Tz6Zli8myt8lKqjLvsXi-8" value="" style="edgeStyle=orthogonalEdgeStyle;rounded=0;orthogonalLoop=1;jettySize=auto;html=1;labelBackgroundColor=none;strokeColor=#0B4D6A;fontColor=default;" edge="1" parent="1" source="Tz6Zli8myt8lKqjLvsXi-5" target="Tz6Zli8myt8lKqjLvsXi-7">
          <mxGeometry relative="1" as="geometry" />
        </mxCell>
        <mxCell id="Tz6Zli8myt8lKqjLvsXi-5" value="Definir variable cantifaf de letras y asignar contar letras" style="whiteSpace=wrap;html=1;labelBackgroundColor=none;fillColor=#09555B;strokeColor=#BAC8D3;fontColor=#EEEEEE;" vertex="1" parent="1">
          <mxGeometry x="480" y="280" width="120" height="60" as="geometry" />
        </mxCell>
        <mxCell id="Tz6Zli8myt8lKqjLvsXi-10" value="" style="edgeStyle=orthogonalEdgeStyle;rounded=0;orthogonalLoop=1;jettySize=auto;html=1;labelBackgroundColor=none;strokeColor=#0B4D6A;fontColor=default;" edge="1" parent="1" source="Tz6Zli8myt8lKqjLvsXi-7" target="Tz6Zli8myt8lKqjLvsXi-9">
          <mxGeometry relative="1" as="geometry" />
        </mxCell>
        <mxCell id="Tz6Zli8myt8lKqjLvsXi-7" value="Mostrar cantidad de letras" style="shape=parallelogram;perimeter=parallelogramPerimeter;whiteSpace=wrap;html=1;fixedSize=1;labelBackgroundColor=none;fillColor=#09555B;strokeColor=#BAC8D3;fontColor=#EEEEEE;" vertex="1" parent="1">
          <mxGeometry x="470" y="380" width="140" height="60" as="geometry" />
        </mxCell>
        <mxCell id="Tz6Zli8myt8lKqjLvsXi-9" value="Fin" style="ellipse;whiteSpace=wrap;html=1;labelBackgroundColor=none;fillColor=#09555B;strokeColor=#BAC8D3;fontColor=#EEEEEE;" vertex="1" parent="1">
          <mxGeometry x="500" y="490" width="80" height="80" as="geometry" />
        </mxCell>
      </root>
    </mxGraphModel>
  </diagram>
</mxfile>
